<svg xmlns="http://www.w3.org/2000/svg" viewBox="0 0 500 500"><defs><style>.cls-1{fill:#f5f5f5;}.cls-2,.cls-5{fill:#e0e0e0;}.cls-3{fill:#ebebeb;}.cls-4{fill:#fafafa;}.cls-5{opacity:0.5;}.cls-14,.cls-6{fill:#263238;}.cls-10,.cls-18,.cls-6,.cls-7,.cls-8{stroke:#263238;}.cls-10,.cls-12,.cls-18,.cls-6,.cls-7,.cls-8,.cls-9{stroke-linecap:round;stroke-linejoin:round;}.cls-16,.cls-7{fill:#fff;}.cls-12,.cls-17,.cls-18,.cls-8,.cls-9{fill:none;}.cls-12,.cls-9{stroke:#fff;}.cls-18,.cls-9{stroke-width:0.75px;}.cls-10{fill:#c6ff00;}.cls-11{fill:#455a64;}.cls-13{opacity:0.3;}.cls-15{fill:#ff725e;}</style></defs><g id="Background_Complete" data-name="Background Complete"><path class="cls-1" d="M398.54,467.12c-1.49-1.28-4.83-5.34-2.26-10.07,1-1.74,3-2.59,4.76-3.36a19.22,19.22,0,0,0,5.23-2.7c2.83-2.41,3.61-6.41,5.49-9.62,2.15-3.69,6.18-6.46,10.43-6.26,4.88.22,8.94,4.2,10.78,8.73s1.91,9.58,1.94,14.48c0,2.71-.1,5.76-2.08,7.59s-4.6,1.71-7.08,1.63l-26.63-.82"/><path class="cls-2" d="M449.46,393.92h-70l12.61,75.2a8.4,8.4,0,0,0,6,6.69l.24.07c.21.05.41.12.63.16a8.23,8.23,0,0,0,1.42.17v.07l.34-.06h31.21a8.78,8.78,0,0,0,1.71-.17,8.42,8.42,0,0,0,7.08-7.35l6.08-51.81.28-2.06h0l2.4-20.52Zm-13.21,48h-7.18l.72-21.83h8.33Zm2.56-21.83h6.88l-2.56,21.83H437Zm-20.52,46-.44-19H428.2l-.63,19Zm-11.19-19h10.06l.43,19h-9Zm.78,19h-8.43c-.8-5.12-1.84-11.77-3-19h9.93Zm-1.18-24.19L405,420.06h11.53l.51,21.83Zm11,0-.5-21.83H429.1l-.73,21.83Zm-.62-27.06-.47-20.21h13.3l-.67,20.21Zm-.7,0H404.59L403,394.62H416Zm-12.51,0H391.39c-.44-2.79-.86-5.43-1.24-7.81-1.31-8.17-1.8-11.25-2.07-12.4h14.25Zm.4,5.23,1.7,21.83H395.66c-.35-2.22-.7-4.46-1.06-6.7l-2.38-15.13ZM395,441.89H388.2l-3.66-21.83h7Zm.83,5.23c1,6.56,2,13,3,19h-6.49l-3.18-19Zm32.48,19,.63-19h6.91l-1.62,19ZM430,414.83l.67-20.21h9.65l-1.73,20.21Zm-42.55-20.21c.28,1.46,1.55,9.41,3.27,20.21h-7l-3.39-20.21Zm52.87,71.46h-5.41l1.62-19h6Zm6-51.25h-7.05L441,394.62h7.69Z"/><path class="cls-3" d="M234.83,332.28l-37.76,11.77a5,5,0,0,1-6.2-3.25l-16.29-52.28a5,5,0,0,1,3.25-6.2l23.95-7.46,24.5,13.33,11.81,37.89A5,5,0,0,1,234.83,332.28Z"/><path class="cls-2" d="M201.78,274.86l4.59,14.71a4.6,4.6,0,0,0,5.76,3l14.15-4.41Z"/><path class="cls-4" d="M203,290c.06.19-3.8,1.56-8.63,3.06s-8.78,2.57-8.84,2.38,3.8-1.56,8.63-3.06S203,289.77,203,290Z"/><path class="cls-4" d="M216.89,294.76c.06.19-6.33,2.35-14.27,4.82s-14.43,4.33-14.49,4.14,6.33-2.35,14.27-4.82S216.83,294.57,216.89,294.76Z"/><path class="cls-4" d="M221.64,300.9c.06.19-6.91,2.53-15.56,5.22s-15.72,4.74-15.78,4.55,6.91-2.53,15.56-5.23S221.58,300.71,221.64,300.9Z"/><path class="cls-4" d="M223.69,307.45c.05.19-6.92,2.53-15.57,5.23s-15.72,4.73-15.78,4.54,6.91-2.53,15.57-5.23S223.63,307.26,223.69,307.45Z"/><path class="cls-4" d="M225.73,314c.06.19-6.91,2.53-15.57,5.23s-15.72,4.73-15.78,4.54,6.91-2.53,15.57-5.22S225.67,313.81,225.73,314Z"/><path class="cls-4" d="M227.77,320.56c.06.19-6.91,2.53-15.57,5.22s-15.72,4.74-15.78,4.55,6.91-2.53,15.57-5.23S227.71,320.37,227.77,320.56Z"/><path class="cls-3" d="M134.43,125.22,97.56,110.87a5,5,0,0,1-2.82-6.4l19.86-51a4.94,4.94,0,0,1,6.4-2.82l23.38,9.09,10.85,25.7-14.39,37A5,5,0,0,1,134.43,125.22Z"/><path class="cls-2" d="M144.38,59.71,138.8,74.08a4.6,4.6,0,0,0,2.62,6l13.81,5.38Z"/><path class="cls-4" d="M135.93,72.29c-.07.18-3.94-1.15-8.65-3s-8.47-3.46-8.4-3.65,3.94,1.15,8.66,3S136,72.1,135.93,72.29Z"/><path class="cls-4" d="M143.79,84.69c-.07.19-6.41-2.11-14.16-5.12s-14-5.61-13.91-5.8,6.41,2.11,14.17,5.13S143.86,84.51,143.79,84.69Z"/><path class="cls-4" d="M143.68,92.46c-.07.18-7-2.34-15.43-5.62s-15.24-6.1-15.17-6.29,7,2.33,15.43,5.62S143.75,92.27,143.68,92.46Z"/><path class="cls-4" d="M141.19,98.85c-.07.19-7-2.33-15.43-5.61S110.52,87.13,110.59,87s7,2.33,15.43,5.62S141.26,98.67,141.19,98.85Z"/><path class="cls-4" d="M138.7,105.25c-.07.19-7-2.33-15.43-5.62S108,93.53,108.1,93.35s7,2.33,15.43,5.61S138.78,105.07,138.7,105.25Z"/><path class="cls-4" d="M136.22,111.65c-.08.18-7-2.33-15.43-5.62s-15.25-6.1-15.18-6.29,7,2.33,15.44,5.62S136.29,111.46,136.22,111.65Z"/><path class="cls-2" d="M454.15,267.33a3,3,0,0,1,2.48,3.35c-.15,1-.29,2-.36,2.48l-3.39,22.31a2,2,0,0,1-2.22,1.64l-51.06-7.76a2,2,0,0,1-1.64-2.11l2.61-28.92a2,2,0,0,1,2.22-1.76l11.55,1.76a4.6,4.6,0,0,1,2.82,1.55l2.07,2.39Z"/><rect class="cls-1" x="398.82" y="266.48" width="56.44" height="34.06" transform="translate(47.49 -60.99) rotate(8.65)"/><path class="cls-3" d="M396.8,264.77l-1.08,35.77a1.26,1.26,0,0,0,1.06,1.28l54.38,8.27a1.26,1.26,0,0,0,1.4-1l8.08-34.7a1.25,1.25,0,0,0-1-1.53l-61.37-9.34A1.27,1.27,0,0,0,396.8,264.77Z"/><ellipse class="cls-2" cx="88.88" cy="466.31" rx="43.78" ry="10.21"/><ellipse class="cls-5" cx="88.88" cy="466.31" rx="43.78" ry="10.21"/><path class="cls-6" d="M116,225.59s6,3.5,7,10.5,3.9,37,3.9,37,10.28,4.94,10.6,7,.29,8.27-8.35,12.39-11.77.17-16.15-8.39S116,225.59,116,225.59Z"/><path class="cls-7" d="M137.78,282.13s-2,5.16-5.8,5.16-2.5-7.86-.59-9.77,3.94-3.58,6.94-.85S137.78,282.13,137.78,282.13Z"/><path class="cls-8" d="M125.34,275.37a8.34,8.34,0,0,0-5.86,6.64"/><path class="cls-7" d="M141.88,273.39v-6.28c0-1.91,1.37-4.65-.27-4.65s-2.73,2.19-2.73,3.56v3.55Z"/><path class="cls-6" d="M98.29,451.87s16.31,5.36,18.42,5.73,1.5,2.61-1,4.23-6.23,2.12-15.06.87-10.45-2.86-11.08-2.61-2.11,1.49-4.23.5-3.11-5-1-6.85S98.29,451.87,98.29,451.87Z"/><path class="cls-6" d="M118,458.85c-4.8,3.83-17.41,2.53-23.71.8a28,28,0,0,0-10.58-.84,3.73,3.73,0,0,0,1.65,1.78c2.12,1,3.61-.25,4.23-.5s2.24,1.37,11.08,2.61,12.57.75,15.06-.87C117.17,460.88,118,459.73,118,458.85Z"/><path class="cls-6" d="M87,455.73a72,72,0,0,0,10.33,7.84c4.6,2.62,6.22,4.36,4,7s-4,2-13.19,0a43.39,43.39,0,0,1-14.68-5.85s-.38,1.25-3.36.38-2.74-3.24-2-5.23S78.38,451.63,87,455.73Z"/><path class="cls-6" d="M101.28,470.54a4.41,4.41,0,0,0,.75-1.15,9.59,9.59,0,0,1-4.4,1.2c-3.65,0-15.18-3.57-19.87-6.25-3.86-2.21-8.61-2.15-10.18-2.06,0,1.2.67,2.26,2.47,2.79,3,.87,3.36-.38,3.36-.38a43.39,43.39,0,0,0,14.68,5.85C97.3,472.53,99,473.15,101.28,470.54Z"/><path class="cls-6" d="M114.72,324.44s-1,14.94-4.48,37.58S97.8,401.6,97.3,410.19s-.25,25.51-.25,29,1.12,2.37,1.24,5.48,0,7.21,0,7.21A42.85,42.85,0,0,1,92,454.36a28.27,28.27,0,0,1-3.74.75s.5,1-2.11-5.35-3.73-17.42-3.73-28.25,4.72-30.12,6.47-41.07,6.72-38.95,7.21-44.8a58.81,58.81,0,0,1,2.37-11.57,34.22,34.22,0,0,0,9.46,0C112.85,323.32,114.72,324.44,114.72,324.44Z"/><path class="cls-6" d="M63.82,322.7s2.87,53.64,1,62.35-3,10.2-2.86,17.54,1.37,36.09,2.86,44.56,3,8.83,2.74,11.07.49,3.86,1,4.23.38,1.87,7.22-.62a137.71,137.71,0,0,0,12.82-5.48,51.34,51.34,0,0,0,.37-7.84c0-5.84-3-10.2-3-14.68s-1-24.64,2.74-38.7S97.3,350.82,98.54,342s1.75-13.82,1.75-13.82a75.9,75.9,0,0,1-19.54-2.86c-10.58-3-17.18-4.6-17.42-3.73A.85.85,0,0,0,63.82,322.7Z"/><path class="cls-9" d="M90.56,451c-.1,1.46-.1,2.49-.1,2.49"/><path class="cls-9" d="M100.38,337.27s-5.29,27.63-8.3,47.23-8.28,39.21-2.26,58.14a9.3,9.3,0,0,1,1,5.32"/><path class="cls-6" d="M76.87,211s-20.5,8.1-24.61,10.22-4.78,6-4.9,8.73,11.1,52.64,11.1,52.64l-2.85,41.6s28.25,10.08,34.1,10.33,10.2.25,10.2.25l3-7.34,1.62,7s5.1-1.87,9.7-4,10.21-7.71,10.58-7.59-6.47-33.22-6.47-33.22,1-58.08-.6-62.81-21.51-12.38-21.51-12.38-7.26-.6-11.37-1.22S78,210.38,76.87,211Z"/><path class="cls-9" d="M64.85,327.67s11.7,4.22,18.28,5.53A106.85,106.85,0,0,0,99,334.65l3.89-7.22,1.62,7L113,331"/><path class="cls-9" d="M117.5,236.83s3.36,15.49,2.84,24.53"/><path class="cls-7" d="M84.85,213.19c-4.1-.63-7.09-1-8.21-.38l-.65.41,14.22,48.25,5.1,7.72,4.1-11.58s1.37-18.17,1.37-26.13a133.88,133.88,0,0,0-.84-13.87c-2-.89-3.26-1.44-3.26-1.44A115.3,115.3,0,0,0,84.85,213.19Z"/><path class="cls-6" d="M86.1,227l6.59,8.21-2.48,26.26,5.1,7.72s3.61-11.7,3.61-11.33-4.23-24-4.23-24l4.23-7.59-4.61-8.58Z"/><polygon class="cls-7" points="94.81 221.9 100.78 231.48 100.53 215.43 96.18 211.19 94.81 221.9"/><path class="cls-7" d="M80.87,192.4s.13,19.67.13,20.54S93.94,228,93.94,228L99,206.09S89.33,203,86.6,199,81.49,191.53,80.87,192.4Z"/><polygon class="cls-7" points="80.13 206.84 91.82 220.16 85.1 233.22 75.64 212.07 80.13 206.84"/><polygon class="cls-7" points="91.82 220.16 93.94 228 89.33 225.13 91.82 220.16"/><polygon class="cls-7" points="94.79 285.5 94.87 284.98 95.69 279.75 91.18 280.71 94.79 285.5"/><polygon class="cls-10" points="92.03 287.49 93.14 285.39 90.52 285.61 92.03 287.49"/><path class="cls-7" d="M90.35,273.53c.5-.44,6.23-1.11,8.68-1.77a55.83,55.83,0,0,1,8.45-.89L119,276.2s1.56.89-.44,1.56-10-2.22-10-2.22,3.56,3.78,3.56,4.67-5.56,5.33-7.34,6-5.78,0-6.45-.22-1.78-1.56-.22-1.56h1.55a44.94,44.94,0,0,0-4.44-1.78,8.28,8.28,0,0,1-3.12-2.22H89.24S87.91,275.76,90.35,273.53Z"/><path class="cls-8" d="M104.59,276.43s4.45,3.33,4.45,4.22-.23,2.67-.23,2.67"/><path class="cls-8" d="M101.7,278.65a21.06,21.06,0,0,1,3.55,3.34c.67,1.11-.44,4.22-.44,4.22"/><line class="cls-8" x1="108.59" y1="275.54" x2="106.59" y2="273.98"/><path class="cls-7" d="M88.33,272.73l4.57.16s-1.31,1.8-.54,5.74a25.63,25.63,0,0,0,2.43,6.87l-5.45.29S83.46,278.75,88.33,272.73Z"/><path class="cls-6" d="M69.75,247.57,67,273.67l22.14-1.06s-1,5.69-.16,8.9a17.67,17.67,0,0,0,3.08,6,78.17,78.17,0,0,1-20.19,5.11,171.62,171.62,0,0,1-20.38,1,7.64,7.64,0,0,1-7.16-7.13c-1-16,2-57.5,2.23-60.26.34-3.45,4.28-4.72,6.27-4.49s8.66,4.76,11.19,10.65"/><polyline class="cls-9" points="69.66 252.37 66.97 273.67 88.33 272.73"/><path class="cls-9" d="M67,273.67s-6.7.83-9.58,4.2"/><path class="cls-9" d="M58.11,274.26s-5.77,2.65-6.74,6.5"/><path class="cls-9" d="M91.55,288.22s-21.65,4.81-31.28,5"/><path class="cls-7" d="M114.94,173.77s-.7,6.7-3.11,20-5.37,20.66-10.29,19.89-16.07-5.55-18.48-9a16.47,16.47,0,0,1-2.45-8.16s-4.1.28-4.85-4.66,1.64-7.67,3.63-8.2,5.89,1.69,6.79-2.57-3-8.12-.06-10.89,10.28-3.71,17-2.37a28.78,28.78,0,0,1,11.55,5.37Z"/><path class="cls-8" d="M102.21,189.67V192a4.08,4.08,0,0,1-5.48-1.18"/><path class="cls-8" d="M111.6,190.84v2.34a4.28,4.28,0,0,1-3.63.33"/><path class="cls-8" d="M105.34,203s-2.74-.79-5.09-1.57"/><path class="cls-8" d="M107.28,190.85s1.29,7.57.85,8.62-4-.41-4-.41"/><path class="cls-8" d="M95.85,184.11s2.48-3.22,7-1"/><path class="cls-8" d="M108.14,184.68s2.87-1.88,4.22,1.14"/><path class="cls-11" d="M119,249.23l-11.23,37.4a3.22,3.22,0,0,0,3.42,4.13l18.9-1.95a3.21,3.21,0,0,0,2.71-2.18l11.73-34.79a3.22,3.22,0,0,0-2.94-4.25l-19.4-.66A3.22,3.22,0,0,0,119,249.23Z"/><path class="cls-7" d="M140.24,269s-4.91-2.73-6.82-2.19a2.23,2.23,0,0,0-1.64,2.46l6.55,2.73s-9.28-1.64-10.65-1.64-2.18,2.19-.82,2.74h0c1.46.56,9.25,2.17,9.25,2.17s-9.84-2.18-10.11-.82,3,2.19,3,2.19-.55,2.18.54,2.45,4.92,1.92,4.92,1.92,1.36.54,3.27,1.09,3.56-5.19,4.37-7.38S140.24,269,140.24,269Z"/><line class="cls-7" x1="129.05" y1="276.67" x2="135.05" y2="278.58"/><path class="cls-6" d="M80.71,183.41s3,2.38,3.26,3.57,1.19,2.67,2.68,1.19.89-3.57,3.86-6.84-.89-5.34-.89-8,5-4.46,10.1-3.86,5.35,3.27,7.73,3.56a69.62,69.62,0,0,0,7.21.2l-.38,3.07s2.08.6,6.24-3.56-2.67-8.62-2.67-8.62,0-.59-5-5.94-10.7-5.94-21.1-3.27S74.76,164.4,73,167.37s4.76,16,4.76,16Z"/><path class="cls-12" d="M107.45,173a8.17,8.17,0,0,0,6.24-5.94c1.19-5-1.49-9.51-7.73-11.29"/><path class="cls-12" d="M106.56,171.23s1.48-8.91-5.35-11.29S84.57,162,79.52,166.48"/><path class="cls-12" d="M79.23,177.73c-.91,1.09-1.49,1.82-1.49,1.82"/><path class="cls-12" d="M96.16,169.45s-6.42-2.63-10,.76c-1.52,1.42-3.23,3.29-4.71,5"/></g><g id="Plant"><path class="cls-11" d="M360.89,266.52c-11,5.72-19.49,15.56-25.57,26.39s-10,22.72-13.89,34.52L318,388.28c12.84-21.83,23.14-47.5,25.93-72.67l-8.55-.77c5.73-.87,10.54-5,13.6-9.94s4.63-10.59,6.17-16.18l-10.43,1.55A38.6,38.6,0,0,0,360.89,266.52Z"/><g class="cls-13"><path d="M360.89,266.52c-11,5.72-19.49,15.56-25.57,26.39s-10,22.72-13.89,34.52L318,388.28c12.84-21.83,23.14-47.5,25.93-72.67l-8.55-.77c5.73-.87,10.54-5,13.6-9.94s4.63-10.59,6.17-16.18l-10.43,1.55A38.6,38.6,0,0,0,360.89,266.52Z"/></g><path class="cls-11" d="M316.13,402.54s-27.85-33.34-27.53-65.17h11.25s-12.22-8-11.26-12.54,1.29-21.54,1.29-21.54l10.29,2.57s-7.71-3.86-8.68-10,2.25-34.4,2.25-34.4,12.54,13.18,16.4,26.68,14,29.26,11,70.42S316.13,402.54,316.13,402.54Z"/><path class="cls-11" d="M330.26,405.69s30.18-20.1,36.89-45.77l-9-2.46s11.58-3.79,11.79-7.62,3.68-17.6,3.68-17.6l-8.84-.18s7-1.42,9.16-6.12,5.72-28.15,5.72-28.15-13,7.86-19,17.87-17.65,20.46-24.26,54.2S330.26,405.69,330.26,405.69Z"/><path class="cls-14" d="M301.35,290.56a1.87,1.87,0,0,1,.1.34c.06.26.14.6.25,1l.88,4c.38,1.72.83,3.82,1.32,6.27s1.07,5.25,1.64,8.34c1.19,6.18,2.45,13.58,3.75,21.8s2.51,17.3,3.62,26.84,1.94,18.66,2.6,27,1.07,15.79,1.32,22.08c.16,3.15.23,6,.31,8.49s.13,4.66.14,6.42,0,3.09.05,4.05c0,.44,0,.79,0,1.06a1.35,1.35,0,0,1,0,.35,3.23,3.23,0,0,1,0-.35c0-.27,0-.62,0-1.06,0-.95-.08-2.31-.14-4.05s-.12-3.91-.23-6.41-.21-5.34-.39-8.48c-.29-6.29-.79-13.76-1.43-22.06s-1.54-17.4-2.63-26.94-2.36-18.6-3.59-26.83-2.49-15.61-3.63-21.8c-.54-3.1-1.1-5.89-1.56-8.35s-.88-4.57-1.24-6.29-.6-3-.79-4c-.08-.43-.14-.77-.19-1A2,2,0,0,1,301.35,290.56Z"/><path class="cls-11" d="M312.27,423S286.78,394,278.86,376.55l6-2.55c-4.34.71-8.77-1.15-12.13-4s-5.83-6.54-8.25-10.21l7.88-1.33a29.25,29.25,0,0,1-17.2-13.32c9.29,1.53,17.69,6.63,24.62,13a123,123,0,0,1,14.91,17.28,58.28,58.28,0,0,1,5.8,9.53C304.75,393.84,312.29,412.34,312.27,423Z"/><path class="cls-14" d="M367.55,314.63a1.23,1.23,0,0,1-.12.29l-.39.84L365.49,319c-1.37,2.78-3.31,6.82-5.65,11.83s-5.06,11-8,17.73-5.95,14.16-9,22-5.76,15.45-8.16,22.37-4.4,13.19-6,18.47S325.75,421,324.89,424l-1,3.42-.27.89a1.27,1.27,0,0,1-.11.29,1.29,1.29,0,0,1,.06-.31c.05-.23.13-.52.22-.9.22-.82.53-2,.92-3.44.8-3,2-7.3,3.62-12.6s3.6-11.59,5.94-18.53,5.09-14.51,8.13-22.39,6.14-15.32,9.05-22,5.67-12.7,8.07-17.7,4.37-9,5.79-11.76l1.64-3.17c.19-.33.33-.6.44-.81S367.54,314.62,367.55,314.63Z"/><path class="cls-14" d="M314.43,435.36a2.64,2.64,0,0,1-.12-.53c-.07-.41-.15-.92-.25-1.54-.19-1.33-.52-3.26-1-5.62s-1.11-5.17-1.95-8.24-1.92-6.41-3.21-9.86-2.72-6.64-4.1-9.51-2.76-5.4-4-7.48-2.23-3.74-3-4.87l-.83-1.32a2.67,2.67,0,0,1-.26-.48s.14.14.35.42l.91,1.26c.79,1.1,1.86,2.74,3.12,4.81s2.66,4.58,4.1,7.44,2.85,6.1,4.16,9.55,2.34,6.82,3.18,9.91,1.44,5.91,1.85,8.3.7,4.32.83,5.66c.06.63.11,1.14.16,1.55A2.3,2.3,0,0,1,314.43,435.36Z"/><rect class="cls-15" x="292.28" y="428.55" width="55.8" height="11.38"/><polygon class="cls-15" points="297.59 439.94 303.63 478.22 337.34 478.22 342.97 439.94 297.59 439.94"/><path class="cls-14" d="M344.65,439.94c0,.14-10.55.26-23.57.26s-23.58-.12-23.58-.26,10.56-.26,23.58-.26S344.65,439.79,344.65,439.94Z"/></g><g id="Screen"><rect class="cls-16" x="215.5" y="51.93" width="249.17" height="156.07"/><rect class="cls-11" x="215.5" y="51.93" width="249.17" height="14.3"/><rect class="cls-1" x="215.41" y="204.9" width="249.26" height="28.14"/><polygon class="cls-17" points="248.16 217.53 246.33 217.27 245.51 215.61 244.69 217.27 242.86 217.53 244.18 218.82 244.17 218.91 243.87 220.65 245.51 219.78 247.14 220.65 246.83 218.82 246.9 218.76 248.16 217.53"/><path class="cls-17" d="M233.67,216a1.1,1.1,0,1,0,1.1,1.09A1.09,1.09,0,0,0,233.67,216Z"/><path class="cls-14" d="M266.65,218.52h2.23l.7,1.46h.48l-2.23-4.66h-.13L265.47,220H266Zm1.11-2.32.91,1.89h-1.81Z"/><rect class="cls-14" x="265.11" y="220.97" width="5.28" height="0.37"/><path class="cls-14" d="M233.85,215.06h-.36a2,2,0,0,0-1.85,2,8.36,8.36,0,0,0,1.85,4s.14.25.36,0a8.26,8.26,0,0,0,1.85-4A2,2,0,0,0,233.85,215.06Zm-.18,3.17a1.1,1.1,0,1,1,1.1-1.1A1.09,1.09,0,0,1,233.67,218.23Z"/><path class="cls-14" d="M258.57,219.72a1.13,1.13,0,0,1-2.26,0v-3.65a.73.73,0,1,1,1.46,0v3.09h0a.42.42,0,0,1-.4.33.44.44,0,0,1-.41-.33v-2.39h-.27v2.28h0v.11h0a.68.68,0,0,0,.67.58.69.69,0,0,0,.67-.58h0v-.06s0,0,0,0h0v-3h0a1,1,0,0,0-2,0h0v3.81h0a1.4,1.4,0,0,0,2.79,0h0v-3.07h-.27Z"/><path class="cls-14" d="M246.55,217l-1-2.11-1,2.11-2.34.34,1.69,1.65-.39,2.33,2.09-1.1,2.09,1.1-.4-2.33,1.69-1.65Zm.59,3.7-1.63-.86-1.64.86.3-1.74v-.09l-1.32-1.29,1.83-.26.82-1.66.82,1.66,1.83.26-1.26,1.23-.07.06Z"/><path class="cls-14" d="M287.7,212.24h-.34v10.84h.34Zm-.17,10.84v0Z"/><rect class="cls-14" x="276.74" y="216.07" width="4.32" height="4.6"/><polygon class="cls-14" points="278.11 215 278.11 215.35 279.7 215.35 279.7 215 281.06 215 281.06 215.71 276.75 215.71 276.75 215 278.11 215"/><rect class="cls-14" x="278.11" y="214.64" width="1.59" height="0.35"/><rect class="cls-14" x="278.11" y="215" width="1.59" height="0.35"/><polygon class="cls-14" points="297.48 218.54 298.8 217.21 298.96 217.37 297.48 218.86 295.99 217.37 296.15 217.21 297.48 218.54"/><path class="cls-14" d="M450.93,106.76a1.48,1.48,0,0,0-1.47,1.42h0v5.58h0a2,2,0,0,0,4.08,0h0v-4.5h-.4v4.31a1.65,1.65,0,0,1-3.3,0v-5.34a1.07,1.07,0,1,1,2.14,0v4.53h0a.6.6,0,0,1-1.18,0v-3.49h-.4v3.33h0v.16h0a1,1,0,0,0,2,0h0v-.09s0,0,0-.08h0v-4.41h0A1.48,1.48,0,0,0,450.93,106.76Z"/><path class="cls-14" d="M223.7,74.2H222v-.62h4.1v.62h-1.7v4.34h-.7Z"/><path class="cls-14" d="M226,76.66a2,2,0,1,1,2,1.93A1.86,1.86,0,0,1,226,76.66Zm3.22,0A1.27,1.27,0,1,0,228,78,1.24,1.24,0,0,0,229.26,76.66Z"/><path class="cls-14" d="M232.47,75.23a.47.47,0,0,1,.48-.48.49.49,0,0,1,0,1A.48.48,0,0,1,232.47,75.23Zm0,2.87a.47.47,0,0,1,.48-.48.46.46,0,0,1,.47.48.47.47,0,0,1-.47.49A.48.48,0,0,1,232.47,78.1Z"/><path class="cls-14" d="M223,92.77a2.51,2.51,0,0,1,2.63-2.54,2.46,2.46,0,0,1,1.89.77l-.46.45a1.85,1.85,0,0,0-1.4-.59,1.91,1.91,0,1,0,0,3.82,1.86,1.86,0,0,0,1.4-.6l.46.45a2.48,2.48,0,0,1-1.9.78A2.51,2.51,0,0,1,223,92.77Z"/><path class="cls-14" d="M227.93,93.37a1.88,1.88,0,0,1,2-1.91,1.67,1.67,0,0,1,1.53.8l-.51.33a1.2,1.2,0,0,0-1-.54,1.33,1.33,0,0,0,0,2.65,1.2,1.2,0,0,0,1-.54l.51.33a1.69,1.69,0,0,1-1.53.8A1.88,1.88,0,0,1,227.93,93.37Z"/><path class="cls-14" d="M233.92,91.94a.48.48,0,1,1,1,0,.48.48,0,1,1-1,0Zm0,2.87a.48.48,0,1,1,.48.48A.48.48,0,0,1,233.92,94.81Z"/><path class="cls-14" d="M222.26,111.61l.26-.55a2.58,2.58,0,0,0,1.64.57c.86,0,1.23-.33,1.23-.77,0-1.21-3-.44-3-2.29,0-.76.6-1.42,1.9-1.42a3,3,0,0,1,1.6.44l-.24.57a2.52,2.52,0,0,0-1.36-.4c-.84,0-1.21.35-1.21.78,0,1.22,3,.46,3,2.28,0,.76-.61,1.41-1.92,1.41A2.94,2.94,0,0,1,222.26,111.61Z"/><path class="cls-14" d="M230.52,108.42v3.76h-.65v-.57a1.51,1.51,0,0,1-1.27.61,1.48,1.48,0,0,1-1.62-1.64v-2.16h.68v2.08c0,.74.37,1.11,1,1.11a1.11,1.11,0,0,0,1.16-1.25v-1.94Z"/><path class="cls-14" d="M235.71,110.3a1.83,1.83,0,0,1-1.9,1.92,1.56,1.56,0,0,1-1.34-.64v.6h-.66v-5.27h.68V109a1.62,1.62,0,0,1,1.32-.6A1.83,1.83,0,0,1,235.71,110.3Zm-.69,0a1.27,1.27,0,1,0-1.27,1.32A1.24,1.24,0,0,0,235,110.3Z"/><path class="cls-14" d="M235.35,113.37l.22-.53a.81.81,0,0,0,.55.18c.36,0,.56-.23.56-.66v-3.94h.68v3.93a1.12,1.12,0,0,1-1.2,1.25A1.36,1.36,0,0,1,235.35,113.37Zm1.21-6.12a.44.44,0,0,1,.46-.44.43.43,0,0,1,.46.43.46.46,0,0,1-.92,0Z"/><path class="cls-14" d="M242,110.52h-3a1.28,1.28,0,0,0,1.37,1.1,1.41,1.41,0,0,0,1.08-.45l.38.44a2.05,2.05,0,0,1-3.51-1.31,1.84,1.84,0,0,1,1.89-1.92,1.81,1.81,0,0,1,1.86,1.94A1.5,1.5,0,0,1,242,110.52Zm-3-.49h2.42a1.22,1.22,0,0,0-2.42,0Z"/><path class="cls-14" d="M242.65,110.3a1.88,1.88,0,0,1,2-1.92,1.69,1.69,0,0,1,1.53.8l-.52.34a1.17,1.17,0,0,0-1-.54,1.32,1.32,0,0,0,0,2.64,1.17,1.17,0,0,0,1-.54l.52.33a1.68,1.68,0,0,1-1.53.81A1.88,1.88,0,0,1,242.65,110.3Z"/><path class="cls-14" d="M249.21,112a1.34,1.34,0,0,1-.82.26,1.08,1.08,0,0,1-1.2-1.18V109h-.63v-.56h.63v-.83h.68v.83H249V109h-1.08v2a.55.55,0,0,0,.59.63.91.91,0,0,0,.54-.17Z"/><path class="cls-14" d="M251.62,108.86a.48.48,0,1,1,.48.49A.47.47,0,0,1,251.62,108.86Zm0,2.87a.48.48,0,1,1,.95,0,.48.48,0,1,1-.95,0Z"/><path class="cls-14" d="M313.88,77.65c0,.15-15.92.26-35.56.26s-35.57-.11-35.57-.26,15.92-.26,35.57-.26S313.88,77.51,313.88,77.65Z"/><path class="cls-14" d="M345.64,93.88c0,.15-23,.26-51.44.26s-51.45-.11-51.45-.26,23-.26,51.45-.26S345.64,93.74,345.64,93.88Z"/><path class="cls-14" d="M307.6,110a1.54,1.54,0,0,1-.47.06l-1.36,0-5,.09c-4.21,0-10,.07-16.42.07s-12.22,0-16.43-.07l-5-.09-1.36,0a1.54,1.54,0,0,1-.47-.06,2.65,2.65,0,0,1,.47,0l1.36-.05,5-.08c4.21,0,10-.08,16.43-.08s12.21,0,16.42.08l5,.08,1.36.05A2.65,2.65,0,0,1,307.6,110Z"/><path class="cls-2" d="M462,118.74c0,.15-55.18.26-123.24.26s-123.24-.11-123.24-.26,55.17-.26,123.24-.26S462,118.6,462,118.74Z"/><path class="cls-2" d="M462,101.18c0,.14-55.2.26-123.28.26s-123.29-.12-123.29-.26,55.19-.26,123.29-.26S462,101,462,101.18Z"/><path class="cls-2" d="M462,85.77c0,.14-55.18.26-123.24.26s-123.24-.12-123.24-.26,55.17-.26,123.24-.26S462,85.62,462,85.77Z"/><path class="cls-14" d="M248.59,140.17a70.05,70.05,0,0,1-8.47.26,70.16,70.16,0,0,1-8.48-.26,67.78,67.78,0,0,1,8.48-.26A67.68,67.68,0,0,1,248.59,140.17Z"/><path class="cls-14" d="M345.1,150c0,.14-25.66.26-57.3.26s-57.29-.12-57.29-.26,25.65-.26,57.29-.26S345.1,149.83,345.1,150Z"/><path class="cls-14" d="M326.09,156.83c0,.12-21.4.22-47.79.22s-47.79-.1-47.79-.22,21.39-.22,47.79-.22S326.09,156.71,326.09,156.83Z"/><circle class="cls-16" cx="222.48" cy="59.08" r="1.55"/><circle class="cls-16" cx="227.99" cy="59.08" r="1.55"/><circle class="cls-16" cx="233.5" cy="59.08" r="1.55"/><path class="cls-14" d="M465.67,233c0-1.74-.09-71.29-.22-181.11l.22.21-250.15,0h0l.26-.26c0,64.93,0,126.51,0,181.11l-.24-.23,250.17.23-250.17.24h-.24V233c0-54.6,0-116.18,0-181.11v-.26h.28l250.15,0h.21v.21C465.75,161.75,465.67,231.3,465.67,233Z"/></g><g id="Character"><path class="cls-2" d="M240.1,131.71a5.47,5.47,0,0,0-5.5,5.41l-.47,60.31a5.47,5.47,0,0,0,5.41,5.5l43.57.34a5.47,5.47,0,0,0,5.5-5.41l.29-60.34a5.58,5.58,0,0,0-5.56-5.62Z"/><path class="cls-2" d="M264,150c0,.22-4.51.36-10.08.32s-10.08-.26-10.08-.48,4.52-.36,10.09-.31S264,149.81,264,150Z"/><path class="cls-2" d="M276.9,157.88c0,.22-7.44.34-16.6.26s-16.58-.3-16.58-.52,7.43-.34,16.59-.27S276.9,157.66,276.9,157.88Z"/><path class="cls-2" d="M279.82,165.92c0,.22-8.1.33-18.09.25s-18.08-.32-18.08-.54,8.1-.33,18.09-.25S279.82,165.7,279.82,165.92Z"/><path class="cls-2" d="M279.76,173.48c0,.22-8.1.33-18.08.25s-18.09-.32-18.09-.54,8.1-.33,18.09-.25S279.76,173.26,279.76,173.48Z"/><path class="cls-2" d="M279.7,181c0,.22-8.1.33-18.08.25s-18.09-.32-18.09-.54,8.1-.33,18.09-.25S279.7,180.82,279.7,181Z"/><path class="cls-2" d="M279.64,188.6c0,.22-8.1.33-18.08.25s-18.09-.32-18.08-.53,8.09-.34,18.08-.26S279.64,188.38,279.64,188.6Z"/><path class="cls-16" d="M238.08,129.91a5.45,5.45,0,0,0-5.49,5.41l-.48,60.31a5.47,5.47,0,0,0,5.41,5.5l43.58.34a5.45,5.45,0,0,0,5.49-5.41l.3-60.35a5.59,5.59,0,0,0-5.56-5.61Z"/><path class="cls-14" d="M238.08,129.91s.22,0,.63,0l1.83,0,7.05,0,25.93,0h6.37a17,17,0,0,1,2.24.07,5.72,5.72,0,0,1,3.92,2.41,5.55,5.55,0,0,1,.95,2.23,13.18,13.18,0,0,1,.1,2.42c0,6.44-.05,13.32-.08,20.55s-.06,14.83-.1,22.71c0,3.93,0,7.94-.05,12,0,1,0,2,0,3.07a6.41,6.41,0,0,1-.56,3.11,5.72,5.72,0,0,1-5.23,3.26l-24.39-.2-11.59-.1-5.62,0a26.58,26.58,0,0,1-2.8-.1,5.46,5.46,0,0,1-2.58-1.13,5.74,5.74,0,0,1-2.2-4.88c0-1.77,0-3.51.05-5.22,0-3.43.06-6.76.09-10,.06-6.44.12-12.43.17-17.91.12-10.93.22-19.78.29-25.92a9.51,9.51,0,0,1,.17-2.17,5.43,5.43,0,0,1,.77-1.76,5.53,5.53,0,0,1,2.26-1.94,5.45,5.45,0,0,1,1.78-.47,4.14,4.14,0,0,1,.62,0,6.07,6.07,0,0,0-2.35.58,5.41,5.41,0,0,0-2.18,1.92,5.12,5.12,0,0,0-.72,1.72,9.63,9.63,0,0,0-.15,2.13c0,6.14-.07,15-.12,25.93,0,5.47-.07,11.47-.11,17.9,0,3.22,0,6.55-.06,10,0,1.72,0,3.46,0,5.22a5.3,5.3,0,0,0,2,4.51,5.1,5.1,0,0,0,2.37,1,26.86,26.86,0,0,0,2.72.09l5.62,0,11.6.08,24.38.19a5.18,5.18,0,0,0,4.76-3,6,6,0,0,0,.52-2.89c0-1,0-2,0-3.06q0-6.09.06-12c0-7.87.09-15.47.13-22.7s.09-14.11.13-20.55a13.92,13.92,0,0,0-.09-2.35,5.31,5.31,0,0,0-.87-2.06,5.37,5.37,0,0,0-3.64-2.26c-.7-.09-1.45-.05-2.18-.07h-2.17l-4.2,0-25.93-.2-7.05-.08-1.83,0Z"/><path class="cls-14" d="M261.94,148.23c0,.22-4.52.36-10.09.32s-10.07-.26-10.07-.48,4.51-.36,10.08-.31S261.94,148,261.94,148.23Z"/><path class="cls-14" d="M274.88,156.08c0,.22-7.43.34-16.59.26s-16.59-.3-16.59-.52,7.43-.34,16.6-.27S274.88,155.86,274.88,156.08Z"/><path class="cls-14" d="M277.81,164.12c0,.22-8.1.33-18.09.25s-18.08-.32-18.08-.54,8.1-.33,18.09-.25S277.81,163.9,277.81,164.12Z"/><path class="cls-14" d="M277.75,171.68c0,.22-8.1.33-18.09.25s-18.08-.32-18.08-.54,8.1-.33,18.09-.25S277.75,171.46,277.75,171.68Z"/><path class="cls-14" d="M277.69,179.24c0,.22-8.1.33-18.09.25s-18.08-.32-18.08-.54,8.1-.33,18.09-.25S277.69,179,277.69,179.24Z"/><path class="cls-14" d="M277.63,186.8c0,.22-8.1.33-18.09.25s-18.08-.32-18.08-.53,8.1-.34,18.09-.26S277.63,186.58,277.63,186.8Z"/><path class="cls-18" d="M244.16,136.34v-5a1.52,1.52,0,0,0-1.52-1.52h0a1.52,1.52,0,0,0-1.52,1.52v7a2.44,2.44,0,0,0,2.44,2.44h0a2.43,2.43,0,0,0,2.43-2.44v-8.07a3.39,3.39,0,0,0-3.39-3.39h0a3.39,3.39,0,0,0-3.19,2.25v.4"/></g></svg>